<svg width="673" height="835" viewBox="0 0 673 835" fill="none" xmlns="http://www.w3.org/2000/svg">
<path d="M589.5 635L617.5 627.5L643 621H646L645 623L642 627.5L635.5 635.5L623 649L597.5 675.5L548.5 665.5L569 652.5L589.5 635Z" fill="#A41337"/>
<path fill-rule="evenodd" clip-rule="evenodd" d="M236 753.5L335.5 835L499 707L499.126 706.894L512 715L520.5 718.5L525 719.5L530 720L537.5 719.5L543.5 718.5L557 715L583.5 707L622 691L636 684L550.5 664L533 672L515 678L501.5 682L459 692.5L412 701.5L371.5 707.5L353.5 709H335.5H325L313.5 708.5L292 706.5L251 700L196 689L176.5 683.5L145 674L143.5 675.5L142 678.5L150 684.5L236 753.5Z" fill="#D72740"/>
<path d="M336 749.5L312.5 743L289.5 735L268 728L246.5 719.5L239.5 717L228.5 712.5L215.5 708L204.5 702.5L199.5 700.5L190 695L186.5 693L182.5 690L178 687L175.5 684H179L192.5 687.5L208.5 691L230 696L252 699.5L293 706L315 708.5L337.5 709L358.5 708L378 706L420 700L498.5 683L497.5 684.5L496 686.5L493 689.5L483.5 695.5L473.5 700L463.5 704.5L444.5 713L424 721L400 730L373.5 738.5L351.5 745.5L336 749.5Z" fill="#A41337"/>
<path fill-rule="evenodd" clip-rule="evenodd" d="M26 0.5L31 0H38.5L45.5 2.5L70.5 12.5L97 24.5L131.5 45L146.5 55.5L161 67L172.5 77.5L187.5 91L215 121L241.5 157L263.5 195H331H341.5H409L431 157L457.5 121L485 91L500 77.5L511.5 67L526 55.5L541 45L575.5 24.5L602 12.5L627 2.5L634 0H641.5L646.5 0.5L652 4L655 8L659 16L664 30.5L670 67.5L672.5 145L669.5 190.5L666 216.5L659.5 253L650.5 287.5L641 316.5L630 343.5L615.5 373.5L600 401L597.5 405.5L605.5 423L614.5 444.5L624.5 473L632 501L634.5 515.5L636 529.5V534.5V539L635.832 538.921C635.944 540.867 636 542.822 636 544.783C621 670.783 501 699.283 340 713.783C172.5 702.283 41.0001 661 35.5 543C35.115 534.741 35.8635 526.616 37.661 518.664L38 515.5L40.5 501L48 473L58 444.5L67 423L75 405.5L72.5 401L57 373.5L42.5 343.5L31.5 316.5L22 287.5L13 253L6.5 216.5L3 190.5L0 145L2.5 67.5L8.5 30.5L13.5 16L17.5 8L20.5 4L26 0.5Z" fill="#E89F55"/>
<path fill-rule="evenodd" clip-rule="evenodd" d="M50 63L51.5 62L52 62L53 62.0001L54.5 62.0001L58.5 63.0001L64.5 65.5001L78 71.0001L106.5 84.0001L136 103L165.5 126L188 146.5L209.5 171L227.5 197.5L243.5 226.5L232.5 233.5L218 244.5L193.5 265L160.5 296.5L149.156 308.979L144.5 314.894L126 337L104 370L89.5 355L83 346.5L78 337L72.5 327.5L68.5 318.5L61.5 303L58.5 295L56 286.5L51 271.5L47.1875 255.066L44 239L42 223.5L40.5 208L39 193L38 157L40 122L44 91.5L47 76L48.5 69L49 66L49.5 64.5L50 63Z" fill="#FFFAED"/>
<path fill-rule="evenodd" clip-rule="evenodd" d="M622.5 63L621 62L620.5 62L619.5 62.0001L618 62.0001L614 63.0001L608 65.5001L594.5 71.0001L566 84.0001L536.5 103L507 126L484.5 146.5L463 171L445 197.5L429 226.5L440 233.5L454.5 244.5L479 265L512 296.5L524.718 310.49L528 314.894L546.5 337L568.5 370L583 355L589.5 346.5L594.5 337L600 327.5L604 318.5L611 303L614 295L616.5 286.5L621.5 271.5L625.313 255.066L628.5 239L630.5 223.5L632 208L633.5 193L634.5 157L632.5 122L628.5 91.5L625.5 76L624 69L623.5 66L623 64.5L622.5 63Z" fill="#FFFAED"/>
<circle cx="208" cy="446" r="39" fill="#422525"/>
<circle r="10.8462" transform="matrix(1 0 0 -1 194.846 431.846)" fill="white"/>
<circle cx="468" cy="446" r="39" fill="#422525"/>
<circle r="10.8462" transform="matrix(1 0 0 -1 452.846 431.846)" fill="white"/>
<path d="M283.495 644.673L302.774 650.293L318.395 652.578L329.453 653.571L343.96 653.405L358.422 652.239L367.366 650.827L379.761 648.255L389.636 645.298L402.416 640.206L405.435 640.567L406.572 643.518L407.232 646.992L406.394 650.534L404.534 653.623L399.631 655.85L385.83 660.489L372.981 664.083L364.536 665.472L354.093 666.954L343.105 667.459L332.616 667.941L320.083 667.516L309.502 666.001L300.92 664.393L296.355 663.102L287.25 661.018L282.14 658.75L280.55 656.821L279.436 654.37L279.253 650.374L280.114 647.331L283.495 644.673Z" fill="#D77447"/>
<path fill-rule="evenodd" clip-rule="evenodd" d="M375.947 462.877C375.982 460.765 376 458.639 376 456.5C376 390.502 359.211 337 338.5 337C317.789 337 298 390.502 298 456.5C298 458.618 298.02 460.723 298.06 462.814C241.487 474.221 200.236 510.385 200.236 560C209 613.5 262 650 337.236 655C412.5 651 468.5 613 474.236 560C474.236 511.894 432.76 474.608 375.947 462.877Z" fill="#FFFAED"/>
<path d="M337.385 549H330.5L326 547.5L318 544L308.5 536.5L304 532.5L300.5 527L296 520L293.5 514L292.5 504L294.5 497L297 493L302.5 488L308.5 484.5L314.5 483L322 482L337.385 481.5L348.5 482L357.5 482.5L362.5 483L367 484.5L375 489.5L379.5 495.5L381.5 500.5V505V511L378.5 520L374 528.5L367 536.5L361 542L355.5 545L349.5 547.5L345.5 549H337.385Z" fill="#422525"/>
</svg>
